<mxfile host="app.diagrams.net" agent="Mozilla/5.0 (Windows NT 10.0; Win64; x64) AppleWebKit/537.36 (KHTML, like Gecko) Chrome/134.0.0.0 Safari/537.36" version="26.1.0">
  <diagram name="Page-1" id="QeRg7oiaiNVXQ4Oh6P5c">
    <mxGraphModel dx="3813" dy="2669" grid="1" gridSize="10" guides="1" tooltips="1" connect="1" arrows="1" fold="1" page="1" pageScale="1" pageWidth="850" pageHeight="1100" math="0" shadow="0">
      <root>
        <mxCell id="0" />
        <mxCell id="1" parent="0" />
        <mxCell id="6mohZMEIYoCUt31C2DHW-1" value="Users" style="rounded=0;whiteSpace=wrap;html=1;" parent="1" vertex="1">
          <mxGeometry x="120" y="200" width="120" height="60" as="geometry" />
        </mxCell>
        <mxCell id="6mohZMEIYoCUt31C2DHW-8" value="&lt;u&gt;user_id&lt;/u&gt;" style="ellipse;whiteSpace=wrap;html=1;" parent="1" vertex="1">
          <mxGeometry x="150" y="90" width="80" height="40" as="geometry" />
        </mxCell>
        <mxCell id="6mohZMEIYoCUt31C2DHW-9" value="auth_id" style="ellipse;whiteSpace=wrap;html=1;" parent="1" vertex="1">
          <mxGeometry x="50" y="100" width="80" height="40" as="geometry" />
        </mxCell>
        <mxCell id="6mohZMEIYoCUt31C2DHW-10" value="email" style="ellipse;whiteSpace=wrap;html=1;" parent="1" vertex="1">
          <mxGeometry x="-10" y="150" width="80" height="40" as="geometry" />
        </mxCell>
        <mxCell id="6mohZMEIYoCUt31C2DHW-11" value="username" style="ellipse;whiteSpace=wrap;html=1;" parent="1" vertex="1">
          <mxGeometry x="-10" y="210" width="80" height="40" as="geometry" />
        </mxCell>
        <mxCell id="6mohZMEIYoCUt31C2DHW-12" value="created_at" style="ellipse;whiteSpace=wrap;html=1;" parent="1" vertex="1">
          <mxGeometry x="-10" y="270" width="80" height="40" as="geometry" />
        </mxCell>
        <mxCell id="6mohZMEIYoCUt31C2DHW-13" value="" style="endArrow=none;html=1;rounded=0;entryX=0.5;entryY=1;entryDx=0;entryDy=0;exitX=0.5;exitY=0;exitDx=0;exitDy=0;" parent="1" source="6mohZMEIYoCUt31C2DHW-1" target="6mohZMEIYoCUt31C2DHW-8" edge="1">
          <mxGeometry width="50" height="50" relative="1" as="geometry">
            <mxPoint x="520" y="310" as="sourcePoint" />
            <mxPoint x="570" y="260" as="targetPoint" />
          </mxGeometry>
        </mxCell>
        <mxCell id="6mohZMEIYoCUt31C2DHW-14" value="" style="endArrow=none;html=1;rounded=0;entryX=1;entryY=1;entryDx=0;entryDy=0;exitX=0.25;exitY=0;exitDx=0;exitDy=0;" parent="1" source="6mohZMEIYoCUt31C2DHW-1" target="6mohZMEIYoCUt31C2DHW-9" edge="1">
          <mxGeometry width="50" height="50" relative="1" as="geometry">
            <mxPoint x="520" y="310" as="sourcePoint" />
            <mxPoint x="570" y="260" as="targetPoint" />
          </mxGeometry>
        </mxCell>
        <mxCell id="6mohZMEIYoCUt31C2DHW-15" value="" style="endArrow=none;html=1;rounded=0;entryX=1;entryY=0.5;entryDx=0;entryDy=0;exitX=-0.006;exitY=0.153;exitDx=0;exitDy=0;exitPerimeter=0;" parent="1" source="6mohZMEIYoCUt31C2DHW-1" target="6mohZMEIYoCUt31C2DHW-10" edge="1">
          <mxGeometry width="50" height="50" relative="1" as="geometry">
            <mxPoint x="160" y="210" as="sourcePoint" />
            <mxPoint x="118" y="164" as="targetPoint" />
          </mxGeometry>
        </mxCell>
        <mxCell id="6mohZMEIYoCUt31C2DHW-16" value="" style="endArrow=none;html=1;rounded=0;entryX=1.013;entryY=0.368;entryDx=0;entryDy=0;exitX=0;exitY=0.5;exitDx=0;exitDy=0;entryPerimeter=0;" parent="1" source="6mohZMEIYoCUt31C2DHW-1" target="6mohZMEIYoCUt31C2DHW-11" edge="1">
          <mxGeometry width="50" height="50" relative="1" as="geometry">
            <mxPoint x="170" y="220" as="sourcePoint" />
            <mxPoint x="128" y="174" as="targetPoint" />
          </mxGeometry>
        </mxCell>
        <mxCell id="6mohZMEIYoCUt31C2DHW-17" value="" style="endArrow=none;html=1;rounded=0;entryX=1.013;entryY=0.368;entryDx=0;entryDy=0;exitX=0;exitY=1;exitDx=0;exitDy=0;entryPerimeter=0;" parent="1" source="6mohZMEIYoCUt31C2DHW-1" target="6mohZMEIYoCUt31C2DHW-12" edge="1">
          <mxGeometry width="50" height="50" relative="1" as="geometry">
            <mxPoint x="180" y="230" as="sourcePoint" />
            <mxPoint x="138" y="184" as="targetPoint" />
          </mxGeometry>
        </mxCell>
        <mxCell id="-SGMtxsX90fUDd3RMAnm-1" value="Completed" style="rhombus;whiteSpace=wrap;html=1;" vertex="1" parent="1">
          <mxGeometry x="120" y="420" width="120" height="90" as="geometry" />
        </mxCell>
        <mxCell id="-SGMtxsX90fUDd3RMAnm-2" value="" style="endArrow=none;html=1;rounded=0;exitX=0.5;exitY=1;exitDx=0;exitDy=0;entryX=0.5;entryY=0;entryDx=0;entryDy=0;" edge="1" parent="1" source="6mohZMEIYoCUt31C2DHW-1" target="-SGMtxsX90fUDd3RMAnm-1">
          <mxGeometry width="50" height="50" relative="1" as="geometry">
            <mxPoint x="540" y="600" as="sourcePoint" />
            <mxPoint x="590" y="550" as="targetPoint" />
          </mxGeometry>
        </mxCell>
        <mxCell id="-SGMtxsX90fUDd3RMAnm-4" value="&lt;u&gt;date_completed&lt;/u&gt;" style="ellipse;whiteSpace=wrap;html=1;" vertex="1" parent="1">
          <mxGeometry x="210" y="350" width="110" height="40" as="geometry" />
        </mxCell>
        <mxCell id="-SGMtxsX90fUDd3RMAnm-5" value="time_taken" style="ellipse;whiteSpace=wrap;html=1;" vertex="1" parent="1">
          <mxGeometry x="-25" y="520" width="110" height="40" as="geometry" />
        </mxCell>
        <mxCell id="-SGMtxsX90fUDd3RMAnm-6" value="user_difficulty" style="ellipse;whiteSpace=wrap;html=1;" vertex="1" parent="1">
          <mxGeometry x="-25" y="370" width="110" height="40" as="geometry" />
        </mxCell>
        <mxCell id="-SGMtxsX90fUDd3RMAnm-7" value="" style="endArrow=none;html=1;rounded=0;exitX=1;exitY=0.5;exitDx=0;exitDy=0;entryX=0;entryY=0;entryDx=0;entryDy=0;" edge="1" parent="1" source="-SGMtxsX90fUDd3RMAnm-6" target="-SGMtxsX90fUDd3RMAnm-1">
          <mxGeometry width="50" height="50" relative="1" as="geometry">
            <mxPoint x="540" y="620" as="sourcePoint" />
            <mxPoint x="590" y="570" as="targetPoint" />
          </mxGeometry>
        </mxCell>
        <mxCell id="-SGMtxsX90fUDd3RMAnm-8" value="" style="endArrow=none;html=1;rounded=0;exitX=1;exitY=0;exitDx=0;exitDy=0;entryX=0.5;entryY=1;entryDx=0;entryDy=0;" edge="1" parent="1" source="-SGMtxsX90fUDd3RMAnm-1" target="-SGMtxsX90fUDd3RMAnm-4">
          <mxGeometry width="50" height="50" relative="1" as="geometry">
            <mxPoint x="540" y="620" as="sourcePoint" />
            <mxPoint x="590" y="570" as="targetPoint" />
          </mxGeometry>
        </mxCell>
        <mxCell id="-SGMtxsX90fUDd3RMAnm-9" value="" style="endArrow=none;html=1;rounded=0;entryX=1;entryY=0.5;entryDx=0;entryDy=0;" edge="1" parent="1" source="-SGMtxsX90fUDd3RMAnm-1" target="-SGMtxsX90fUDd3RMAnm-5">
          <mxGeometry width="50" height="50" relative="1" as="geometry">
            <mxPoint x="540" y="620" as="sourcePoint" />
            <mxPoint x="-5" y="540" as="targetPoint" />
          </mxGeometry>
        </mxCell>
        <mxCell id="-SGMtxsX90fUDd3RMAnm-10" value="Saves" style="rhombus;whiteSpace=wrap;html=1;" vertex="1" parent="1">
          <mxGeometry x="390" y="300" width="100" height="80" as="geometry" />
        </mxCell>
        <mxCell id="-SGMtxsX90fUDd3RMAnm-11" value="" style="endArrow=none;html=1;rounded=0;exitX=1;exitY=1;exitDx=0;exitDy=0;entryX=0;entryY=0.5;entryDx=0;entryDy=0;" edge="1" parent="1" source="6mohZMEIYoCUt31C2DHW-1" target="-SGMtxsX90fUDd3RMAnm-10">
          <mxGeometry width="50" height="50" relative="1" as="geometry">
            <mxPoint x="540" y="600" as="sourcePoint" />
            <mxPoint x="590" y="550" as="targetPoint" />
          </mxGeometry>
        </mxCell>
        <mxCell id="-SGMtxsX90fUDd3RMAnm-12" value="" style="endArrow=none;html=1;rounded=0;exitX=1;exitY=0.5;exitDx=0;exitDy=0;entryX=-0.006;entryY=0.512;entryDx=0;entryDy=0;entryPerimeter=0;" edge="1" parent="1" source="-SGMtxsX90fUDd3RMAnm-10" target="-SGMtxsX90fUDd3RMAnm-19">
          <mxGeometry width="50" height="50" relative="1" as="geometry">
            <mxPoint x="540" y="600" as="sourcePoint" />
            <mxPoint x="637" y="340" as="targetPoint" />
          </mxGeometry>
        </mxCell>
        <mxCell id="-SGMtxsX90fUDd3RMAnm-18" value="" style="endArrow=none;html=1;rounded=0;exitX=1;exitY=0.5;exitDx=0;exitDy=0;entryX=0;entryY=0.5;entryDx=0;entryDy=0;" edge="1" parent="1" source="-SGMtxsX90fUDd3RMAnm-1" target="6mohZMEIYoCUt31C2DHW-3">
          <mxGeometry width="50" height="50" relative="1" as="geometry">
            <mxPoint x="540" y="600" as="sourcePoint" />
            <mxPoint x="590" y="550" as="targetPoint" />
          </mxGeometry>
        </mxCell>
        <mxCell id="-SGMtxsX90fUDd3RMAnm-19" value="" style="swimlane;startSize=0;dashed=1;" vertex="1" parent="1">
          <mxGeometry x="650" y="-80" width="470" height="820" as="geometry">
            <mxRectangle x="470" y="470" width="50" height="40" as="alternateBounds" />
          </mxGeometry>
        </mxCell>
        <mxCell id="6mohZMEIYoCUt31C2DHW-2" value="Playlists" style="rounded=0;whiteSpace=wrap;html=1;" parent="-SGMtxsX90fUDd3RMAnm-19" vertex="1">
          <mxGeometry x="60" y="150" width="120" height="60" as="geometry" />
        </mxCell>
        <mxCell id="6mohZMEIYoCUt31C2DHW-3" value="Problems" style="rounded=0;whiteSpace=wrap;html=1;" parent="-SGMtxsX90fUDd3RMAnm-19" vertex="1">
          <mxGeometry x="60" y="420" width="120" height="60" as="geometry" />
        </mxCell>
        <mxCell id="6mohZMEIYoCUt31C2DHW-19" value="&lt;u&gt;playlist_&lt;span style=&quot;background-color: transparent; color: light-dark(rgb(0, 0, 0), rgb(255, 255, 255));&quot;&gt;id&lt;/span&gt;&lt;/u&gt;" style="ellipse;whiteSpace=wrap;html=1;" parent="-SGMtxsX90fUDd3RMAnm-19" vertex="1">
          <mxGeometry x="50" y="50" width="80" height="40" as="geometry" />
        </mxCell>
        <mxCell id="6mohZMEIYoCUt31C2DHW-20" value="title" style="ellipse;whiteSpace=wrap;html=1;" parent="-SGMtxsX90fUDd3RMAnm-19" vertex="1">
          <mxGeometry x="160" y="50" width="80" height="40" as="geometry" />
        </mxCell>
        <mxCell id="6mohZMEIYoCUt31C2DHW-21" value="description" style="ellipse;whiteSpace=wrap;html=1;" parent="-SGMtxsX90fUDd3RMAnm-19" vertex="1">
          <mxGeometry x="240" y="110" width="80" height="40" as="geometry" />
        </mxCell>
        <mxCell id="6mohZMEIYoCUt31C2DHW-23" value="&lt;u&gt;problem_id&lt;/u&gt;" style="ellipse;whiteSpace=wrap;html=1;" parent="-SGMtxsX90fUDd3RMAnm-19" vertex="1">
          <mxGeometry x="360" y="370" width="80" height="40" as="geometry" />
        </mxCell>
        <mxCell id="6mohZMEIYoCUt31C2DHW-24" value="title" style="ellipse;whiteSpace=wrap;html=1;" parent="-SGMtxsX90fUDd3RMAnm-19" vertex="1">
          <mxGeometry x="360" y="430" width="80" height="40" as="geometry" />
        </mxCell>
        <mxCell id="6mohZMEIYoCUt31C2DHW-26" value="difficulty" style="ellipse;whiteSpace=wrap;html=1;" parent="-SGMtxsX90fUDd3RMAnm-19" vertex="1">
          <mxGeometry x="360" y="490" width="80" height="40" as="geometry" />
        </mxCell>
        <mxCell id="6mohZMEIYoCUt31C2DHW-27" value="Concepts" style="rounded=0;whiteSpace=wrap;html=1;" parent="-SGMtxsX90fUDd3RMAnm-19" vertex="1">
          <mxGeometry x="60" y="660" width="120" height="60" as="geometry" />
        </mxCell>
        <mxCell id="6mohZMEIYoCUt31C2DHW-28" value="&lt;u&gt;name&lt;/u&gt;" style="ellipse;whiteSpace=wrap;html=1;" parent="-SGMtxsX90fUDd3RMAnm-19" vertex="1">
          <mxGeometry x="80" y="760" width="80" height="40" as="geometry" />
        </mxCell>
        <mxCell id="6mohZMEIYoCUt31C2DHW-29" value="url" style="ellipse;whiteSpace=wrap;html=1;" parent="-SGMtxsX90fUDd3RMAnm-19" vertex="1">
          <mxGeometry x="360" y="560" width="80" height="40" as="geometry" />
        </mxCell>
        <mxCell id="6mohZMEIYoCUt31C2DHW-30" value="created_at" style="ellipse;whiteSpace=wrap;html=1;" parent="-SGMtxsX90fUDd3RMAnm-19" vertex="1">
          <mxGeometry x="250" y="630" width="80" height="40" as="geometry" />
        </mxCell>
        <mxCell id="6mohZMEIYoCUt31C2DHW-33" value="" style="endArrow=none;html=1;rounded=0;exitX=0;exitY=0.5;exitDx=0;exitDy=0;entryX=1;entryY=0;entryDx=0;entryDy=0;" parent="-SGMtxsX90fUDd3RMAnm-19" source="6mohZMEIYoCUt31C2DHW-23" target="6mohZMEIYoCUt31C2DHW-3" edge="1">
          <mxGeometry width="50" height="50" relative="1" as="geometry">
            <mxPoint x="490" y="190" as="sourcePoint" />
            <mxPoint x="540" y="140" as="targetPoint" />
          </mxGeometry>
        </mxCell>
        <mxCell id="6mohZMEIYoCUt31C2DHW-34" value="" style="endArrow=none;html=1;rounded=0;exitX=0;exitY=0.5;exitDx=0;exitDy=0;entryX=1.025;entryY=0.367;entryDx=0;entryDy=0;entryPerimeter=0;" parent="-SGMtxsX90fUDd3RMAnm-19" source="6mohZMEIYoCUt31C2DHW-24" target="6mohZMEIYoCUt31C2DHW-3" edge="1">
          <mxGeometry width="50" height="50" relative="1" as="geometry">
            <mxPoint x="30" y="380" as="sourcePoint" />
            <mxPoint x="100" y="430" as="targetPoint" />
          </mxGeometry>
        </mxCell>
        <mxCell id="6mohZMEIYoCUt31C2DHW-35" value="" style="endArrow=none;html=1;rounded=0;exitX=-0.025;exitY=0.35;exitDx=0;exitDy=0;entryX=1;entryY=0.75;entryDx=0;entryDy=0;exitPerimeter=0;" parent="-SGMtxsX90fUDd3RMAnm-19" source="6mohZMEIYoCUt31C2DHW-26" target="6mohZMEIYoCUt31C2DHW-3" edge="1">
          <mxGeometry width="50" height="50" relative="1" as="geometry">
            <mxPoint x="40" y="390" as="sourcePoint" />
            <mxPoint x="110" y="440" as="targetPoint" />
          </mxGeometry>
        </mxCell>
        <mxCell id="6mohZMEIYoCUt31C2DHW-36" value="" style="endArrow=none;html=1;rounded=0;exitX=0;exitY=0.5;exitDx=0;exitDy=0;entryX=1;entryY=1;entryDx=0;entryDy=0;" parent="-SGMtxsX90fUDd3RMAnm-19" source="6mohZMEIYoCUt31C2DHW-29" target="6mohZMEIYoCUt31C2DHW-3" edge="1">
          <mxGeometry width="50" height="50" relative="1" as="geometry">
            <mxPoint x="50" y="400" as="sourcePoint" />
            <mxPoint x="110" y="490" as="targetPoint" />
          </mxGeometry>
        </mxCell>
        <mxCell id="6mohZMEIYoCUt31C2DHW-37" value="" style="endArrow=none;html=1;rounded=0;exitX=0.5;exitY=0;exitDx=0;exitDy=0;entryX=0.75;entryY=1;entryDx=0;entryDy=0;" parent="-SGMtxsX90fUDd3RMAnm-19" source="6mohZMEIYoCUt31C2DHW-30" target="6mohZMEIYoCUt31C2DHW-3" edge="1">
          <mxGeometry width="50" height="50" relative="1" as="geometry">
            <mxPoint x="60" y="410" as="sourcePoint" />
            <mxPoint x="130" y="460" as="targetPoint" />
            <Array as="points" />
          </mxGeometry>
        </mxCell>
        <mxCell id="6mohZMEIYoCUt31C2DHW-38" value="" style="endArrow=none;html=1;rounded=0;exitX=0.425;exitY=1;exitDx=0;exitDy=0;exitPerimeter=0;entryX=0.192;entryY=-0.05;entryDx=0;entryDy=0;entryPerimeter=0;" parent="-SGMtxsX90fUDd3RMAnm-19" source="6mohZMEIYoCUt31C2DHW-19" target="6mohZMEIYoCUt31C2DHW-2" edge="1">
          <mxGeometry width="50" height="50" relative="1" as="geometry">
            <mxPoint x="230" y="270" as="sourcePoint" />
            <mxPoint x="280" y="220" as="targetPoint" />
          </mxGeometry>
        </mxCell>
        <mxCell id="6mohZMEIYoCUt31C2DHW-39" value="" style="endArrow=none;html=1;rounded=0;entryX=0.5;entryY=1;entryDx=0;entryDy=0;exitX=0.75;exitY=0;exitDx=0;exitDy=0;" parent="-SGMtxsX90fUDd3RMAnm-19" source="6mohZMEIYoCUt31C2DHW-2" target="6mohZMEIYoCUt31C2DHW-20" edge="1">
          <mxGeometry width="50" height="50" relative="1" as="geometry">
            <mxPoint x="230" y="270" as="sourcePoint" />
            <mxPoint x="280" y="220" as="targetPoint" />
          </mxGeometry>
        </mxCell>
        <mxCell id="6mohZMEIYoCUt31C2DHW-40" value="" style="endArrow=none;html=1;rounded=0;exitX=1;exitY=0.25;exitDx=0;exitDy=0;entryX=0;entryY=0.5;entryDx=0;entryDy=0;" parent="-SGMtxsX90fUDd3RMAnm-19" source="6mohZMEIYoCUt31C2DHW-2" target="6mohZMEIYoCUt31C2DHW-21" edge="1">
          <mxGeometry width="50" height="50" relative="1" as="geometry">
            <mxPoint x="230" y="270" as="sourcePoint" />
            <mxPoint x="280" y="220" as="targetPoint" />
          </mxGeometry>
        </mxCell>
        <mxCell id="6mohZMEIYoCUt31C2DHW-43" value="" style="endArrow=none;html=1;rounded=0;exitX=0.5;exitY=1;exitDx=0;exitDy=0;entryX=0.5;entryY=0;entryDx=0;entryDy=0;" parent="-SGMtxsX90fUDd3RMAnm-19" source="6mohZMEIYoCUt31C2DHW-27" target="6mohZMEIYoCUt31C2DHW-28" edge="1">
          <mxGeometry width="50" height="50" relative="1" as="geometry">
            <mxPoint x="-655" y="250" as="sourcePoint" />
            <mxPoint x="-605" y="200" as="targetPoint" />
          </mxGeometry>
        </mxCell>
        <mxCell id="-SGMtxsX90fUDd3RMAnm-13" value="Added to" style="rhombus;whiteSpace=wrap;html=1;" vertex="1" parent="-SGMtxsX90fUDd3RMAnm-19">
          <mxGeometry x="70" y="280" width="100" height="80" as="geometry" />
        </mxCell>
        <mxCell id="-SGMtxsX90fUDd3RMAnm-14" value="" style="endArrow=none;html=1;rounded=0;exitX=0.5;exitY=0;exitDx=0;exitDy=0;" edge="1" parent="-SGMtxsX90fUDd3RMAnm-19" source="6mohZMEIYoCUt31C2DHW-3" target="-SGMtxsX90fUDd3RMAnm-13">
          <mxGeometry width="50" height="50" relative="1" as="geometry">
            <mxPoint x="480" y="410" as="sourcePoint" />
            <mxPoint x="530" y="360" as="targetPoint" />
          </mxGeometry>
        </mxCell>
        <mxCell id="-SGMtxsX90fUDd3RMAnm-15" value="" style="endArrow=none;html=1;rounded=0;exitX=0.5;exitY=0;exitDx=0;exitDy=0;entryX=0.5;entryY=1;entryDx=0;entryDy=0;" edge="1" parent="-SGMtxsX90fUDd3RMAnm-19" source="-SGMtxsX90fUDd3RMAnm-13" target="6mohZMEIYoCUt31C2DHW-2">
          <mxGeometry width="50" height="50" relative="1" as="geometry">
            <mxPoint x="-100" y="340" as="sourcePoint" />
            <mxPoint x="-50" y="290" as="targetPoint" />
          </mxGeometry>
        </mxCell>
        <mxCell id="-SGMtxsX90fUDd3RMAnm-24" value="Part of" style="rhombus;whiteSpace=wrap;html=1;" vertex="1" parent="-SGMtxsX90fUDd3RMAnm-19">
          <mxGeometry x="70" y="530" width="100" height="80" as="geometry" />
        </mxCell>
        <mxCell id="-SGMtxsX90fUDd3RMAnm-25" value="" style="endArrow=none;html=1;rounded=0;entryX=0.5;entryY=1;entryDx=0;entryDy=0;" edge="1" parent="-SGMtxsX90fUDd3RMAnm-19" source="-SGMtxsX90fUDd3RMAnm-24" target="6mohZMEIYoCUt31C2DHW-3">
          <mxGeometry width="50" height="50" relative="1" as="geometry">
            <mxPoint x="-60" y="580" as="sourcePoint" />
            <mxPoint x="-10" y="530" as="targetPoint" />
          </mxGeometry>
        </mxCell>
        <mxCell id="-SGMtxsX90fUDd3RMAnm-26" value="" style="endArrow=none;html=1;rounded=0;exitX=0.5;exitY=1;exitDx=0;exitDy=0;" edge="1" parent="-SGMtxsX90fUDd3RMAnm-19" source="-SGMtxsX90fUDd3RMAnm-24" target="6mohZMEIYoCUt31C2DHW-27">
          <mxGeometry width="50" height="50" relative="1" as="geometry">
            <mxPoint x="-60" y="580" as="sourcePoint" />
            <mxPoint x="-10" y="530" as="targetPoint" />
          </mxGeometry>
        </mxCell>
        <mxCell id="-SGMtxsX90fUDd3RMAnm-22" value="notes" style="ellipse;whiteSpace=wrap;html=1;" vertex="1" parent="1">
          <mxGeometry x="-25" y="445" width="110" height="40" as="geometry" />
        </mxCell>
        <mxCell id="-SGMtxsX90fUDd3RMAnm-23" value="" style="endArrow=none;html=1;rounded=0;exitX=1;exitY=0.5;exitDx=0;exitDy=0;entryX=0;entryY=0.5;entryDx=0;entryDy=0;" edge="1" parent="1" source="-SGMtxsX90fUDd3RMAnm-22" target="-SGMtxsX90fUDd3RMAnm-1">
          <mxGeometry width="50" height="50" relative="1" as="geometry">
            <mxPoint x="580" y="520" as="sourcePoint" />
            <mxPoint x="630" y="470" as="targetPoint" />
          </mxGeometry>
        </mxCell>
        <mxCell id="-SGMtxsX90fUDd3RMAnm-27" value="Completes" style="rhombus;whiteSpace=wrap;html=1;" vertex="1" parent="1">
          <mxGeometry x="390" y="190" width="100" height="80" as="geometry" />
        </mxCell>
        <mxCell id="-SGMtxsX90fUDd3RMAnm-28" value="" style="endArrow=none;html=1;rounded=0;exitX=1;exitY=0.5;exitDx=0;exitDy=0;entryX=0;entryY=0.5;entryDx=0;entryDy=0;" edge="1" parent="1" target="-SGMtxsX90fUDd3RMAnm-27" source="6mohZMEIYoCUt31C2DHW-1">
          <mxGeometry width="50" height="50" relative="1" as="geometry">
            <mxPoint x="230" y="50" as="sourcePoint" />
            <mxPoint x="580" y="370" as="targetPoint" />
          </mxGeometry>
        </mxCell>
        <mxCell id="-SGMtxsX90fUDd3RMAnm-29" value="" style="endArrow=none;html=1;rounded=0;exitX=1;exitY=0.5;exitDx=0;exitDy=0;entryX=0;entryY=0.378;entryDx=0;entryDy=0;entryPerimeter=0;" edge="1" parent="1" source="-SGMtxsX90fUDd3RMAnm-27" target="-SGMtxsX90fUDd3RMAnm-19">
          <mxGeometry width="50" height="50" relative="1" as="geometry">
            <mxPoint x="530" y="420" as="sourcePoint" />
            <mxPoint x="632" y="46" as="targetPoint" />
          </mxGeometry>
        </mxCell>
        <mxCell id="-SGMtxsX90fUDd3RMAnm-30" value="Creates" style="rhombus;whiteSpace=wrap;html=1;" vertex="1" parent="1">
          <mxGeometry x="390" y="80" width="100" height="80" as="geometry" />
        </mxCell>
        <mxCell id="-SGMtxsX90fUDd3RMAnm-31" value="" style="endArrow=none;html=1;rounded=0;exitX=1;exitY=0;exitDx=0;exitDy=0;entryX=0;entryY=0.5;entryDx=0;entryDy=0;" edge="1" parent="1" target="-SGMtxsX90fUDd3RMAnm-30" source="6mohZMEIYoCUt31C2DHW-1">
          <mxGeometry width="50" height="50" relative="1" as="geometry">
            <mxPoint x="750" y="-200" as="sourcePoint" />
            <mxPoint x="1100" y="120" as="targetPoint" />
          </mxGeometry>
        </mxCell>
        <mxCell id="-SGMtxsX90fUDd3RMAnm-32" value="" style="endArrow=none;html=1;rounded=0;exitX=1;exitY=0.5;exitDx=0;exitDy=0;entryX=0.004;entryY=0.243;entryDx=0;entryDy=0;entryPerimeter=0;" edge="1" parent="1" source="-SGMtxsX90fUDd3RMAnm-30" target="-SGMtxsX90fUDd3RMAnm-19">
          <mxGeometry width="50" height="50" relative="1" as="geometry">
            <mxPoint x="1050" y="170" as="sourcePoint" />
            <mxPoint x="1152" y="-204" as="targetPoint" />
          </mxGeometry>
        </mxCell>
        <mxCell id="-SGMtxsX90fUDd3RMAnm-33" value="&lt;u&gt;date_started&lt;/u&gt;" style="ellipse;whiteSpace=wrap;html=1;" vertex="1" parent="1">
          <mxGeometry x="515" y="270" width="110" height="40" as="geometry" />
        </mxCell>
        <mxCell id="-SGMtxsX90fUDd3RMAnm-34" value="" style="endArrow=none;html=1;rounded=0;exitX=1;exitY=0;exitDx=0;exitDy=0;entryX=0;entryY=0.5;entryDx=0;entryDy=0;" edge="1" parent="1" source="-SGMtxsX90fUDd3RMAnm-10" target="-SGMtxsX90fUDd3RMAnm-33">
          <mxGeometry width="50" height="50" relative="1" as="geometry">
            <mxPoint x="810" y="250" as="sourcePoint" />
            <mxPoint x="860" y="200" as="targetPoint" />
          </mxGeometry>
        </mxCell>
        <mxCell id="-SGMtxsX90fUDd3RMAnm-36" value="&lt;span&gt;# of upvotes&lt;/span&gt;" style="ellipse;whiteSpace=wrap;html=1;fontStyle=0" vertex="1" parent="1">
          <mxGeometry x="385" y="-20" width="110" height="40" as="geometry" />
        </mxCell>
        <mxCell id="-SGMtxsX90fUDd3RMAnm-37" value="&lt;span&gt;#_of_views&lt;/span&gt;" style="ellipse;whiteSpace=wrap;html=1;fontStyle=0" vertex="1" parent="1">
          <mxGeometry x="240" y="30" width="110" height="40" as="geometry" />
        </mxCell>
        <mxCell id="-SGMtxsX90fUDd3RMAnm-39" value="date_created" style="ellipse;whiteSpace=wrap;html=1;" vertex="1" parent="1">
          <mxGeometry x="530" y="30" width="80" height="40" as="geometry" />
        </mxCell>
        <mxCell id="-SGMtxsX90fUDd3RMAnm-40" value="" style="endArrow=none;html=1;rounded=0;exitX=1;exitY=0.5;exitDx=0;exitDy=0;entryX=0;entryY=0;entryDx=0;entryDy=0;" edge="1" parent="1" source="-SGMtxsX90fUDd3RMAnm-37" target="-SGMtxsX90fUDd3RMAnm-30">
          <mxGeometry width="50" height="50" relative="1" as="geometry">
            <mxPoint x="810" y="250" as="sourcePoint" />
            <mxPoint x="860" y="200" as="targetPoint" />
          </mxGeometry>
        </mxCell>
        <mxCell id="-SGMtxsX90fUDd3RMAnm-41" value="" style="endArrow=none;html=1;rounded=0;exitX=0.5;exitY=1;exitDx=0;exitDy=0;entryX=0.5;entryY=0;entryDx=0;entryDy=0;" edge="1" parent="1" source="-SGMtxsX90fUDd3RMAnm-36" target="-SGMtxsX90fUDd3RMAnm-30">
          <mxGeometry width="50" height="50" relative="1" as="geometry">
            <mxPoint x="810" y="250" as="sourcePoint" />
            <mxPoint x="860" y="200" as="targetPoint" />
          </mxGeometry>
        </mxCell>
        <mxCell id="-SGMtxsX90fUDd3RMAnm-42" value="" style="endArrow=none;html=1;rounded=0;exitX=1;exitY=0;exitDx=0;exitDy=0;entryX=0;entryY=0.5;entryDx=0;entryDy=0;" edge="1" parent="1" source="-SGMtxsX90fUDd3RMAnm-30" target="-SGMtxsX90fUDd3RMAnm-39">
          <mxGeometry width="50" height="50" relative="1" as="geometry">
            <mxPoint x="810" y="250" as="sourcePoint" />
            <mxPoint x="860" y="200" as="targetPoint" />
          </mxGeometry>
        </mxCell>
        <mxCell id="-SGMtxsX90fUDd3RMAnm-43" value="date_comleted" style="ellipse;whiteSpace=wrap;html=1;" vertex="1" parent="1">
          <mxGeometry x="522.5" y="160" width="95" height="40" as="geometry" />
        </mxCell>
        <mxCell id="-SGMtxsX90fUDd3RMAnm-44" value="" style="endArrow=none;html=1;rounded=0;exitX=1;exitY=0;exitDx=0;exitDy=0;entryX=0;entryY=0.5;entryDx=0;entryDy=0;" edge="1" parent="1" source="-SGMtxsX90fUDd3RMAnm-27" target="-SGMtxsX90fUDd3RMAnm-43">
          <mxGeometry width="50" height="50" relative="1" as="geometry">
            <mxPoint x="740" y="440" as="sourcePoint" />
            <mxPoint x="790" y="390" as="targetPoint" />
          </mxGeometry>
        </mxCell>
        <mxCell id="-SGMtxsX90fUDd3RMAnm-45" value="" style="swimlane;startSize=0;" vertex="1" parent="1">
          <mxGeometry x="-25" y="640" width="605" height="220" as="geometry" />
        </mxCell>
        <mxCell id="-SGMtxsX90fUDd3RMAnm-47" value="- How will we know when we complete a playlist?&lt;div&gt;&lt;br&gt;&lt;/div&gt;&lt;div&gt;- Do we need 2 relationship e&lt;span style=&quot;background-color: transparent; color: light-dark(rgb(0, 0, 0), rgb(255, 255, 255));&quot;&gt;ntities for Saves and&lt;/span&gt;&lt;span style=&quot;background-color: transparent; color: light-dark(rgb(0, 0, 0), rgb(255, 255, 255));&quot;&gt;&amp;nbsp;Completes?&lt;/span&gt;&lt;/div&gt;&lt;div&gt;&lt;br&gt;&lt;/div&gt;&lt;div&gt;- Do the current relationships make it easy to query for metrics like how comfortable a user is with a certain&amp;nbsp;&lt;/div&gt;&lt;div&gt;&amp;nbsp; topic?&lt;/div&gt;&lt;div&gt;&lt;br&gt;&lt;/div&gt;&lt;div&gt;- Should we be allowed to add comments on playlists? If so, how would that work and would that be part of&amp;nbsp;&amp;nbsp;&lt;/div&gt;&lt;div&gt;&amp;nbsp; our database or some third party site like disqus&lt;/div&gt;&lt;div&gt;&lt;br&gt;&lt;/div&gt;&lt;div&gt;- Do we add streak functionality to Database Schema or query data_completed?&lt;/div&gt;" style="text;html=1;align=left;verticalAlign=top;whiteSpace=wrap;rounded=0;" vertex="1" parent="-SGMtxsX90fUDd3RMAnm-45">
          <mxGeometry x="10" y="38" width="580" height="202" as="geometry" />
        </mxCell>
        <mxCell id="-SGMtxsX90fUDd3RMAnm-46" value="Comments:" style="text;html=1;align=center;verticalAlign=middle;resizable=0;points=[];autosize=1;strokeColor=none;fillColor=none;" vertex="1" parent="1">
          <mxGeometry x="-25" y="648" width="80" height="30" as="geometry" />
        </mxCell>
      </root>
    </mxGraphModel>
  </diagram>
</mxfile>
